<mxfile host="65bd71144e">
    <diagram id="PpotBFKeVr0hnABKsnz-" name="Page-1">
        <mxGraphModel dx="2132" dy="1228" grid="1" gridSize="10" guides="1" tooltips="1" connect="1" arrows="1" fold="1" page="1" pageScale="1" pageWidth="850" pageHeight="1100" math="0" shadow="0">
            <root>
                <mxCell id="0"/>
                <mxCell id="1" parent="0"/>
                <mxCell id="2" value="Navbar" style="rounded=0;whiteSpace=wrap;html=1;fontSize=23;" vertex="1" parent="1">
                    <mxGeometry x="10" y="20" width="120" height="60" as="geometry"/>
                </mxCell>
                <mxCell id="3" value="Navbar" style="rounded=0;whiteSpace=wrap;html=1;fontSize=23;" vertex="1" parent="1">
                    <mxGeometry x="140" y="20" width="120" height="60" as="geometry"/>
                </mxCell>
                <mxCell id="4" value="Navbar" style="rounded=0;whiteSpace=wrap;html=1;fontSize=23;" vertex="1" parent="1">
                    <mxGeometry x="270" y="20" width="120" height="60" as="geometry"/>
                </mxCell>
                <mxCell id="6" value="&lt;font face=&quot;Georgia&quot; style=&quot;font-size: 60px;&quot;&gt;&lt;b&gt;Gender Equality&lt;/b&gt;&lt;/font&gt;" style="rounded=0;whiteSpace=wrap;html=1;" vertex="1" parent="1">
                    <mxGeometry x="10" y="90" width="830" height="180" as="geometry"/>
                </mxCell>
                <mxCell id="7" value="text_1" style="rounded=0;whiteSpace=wrap;html=1;fontFamily=Georgia;fontSize=60;" vertex="1" parent="1">
                    <mxGeometry x="10" y="280" width="380" height="280" as="geometry"/>
                </mxCell>
                <mxCell id="8" value="img_1" style="rounded=0;whiteSpace=wrap;html=1;fontFamily=Georgia;fontSize=60;" vertex="1" parent="1">
                    <mxGeometry x="410" y="280" width="430" height="280" as="geometry"/>
                </mxCell>
                <mxCell id="9" value="img_2" style="rounded=0;whiteSpace=wrap;html=1;fontFamily=Georgia;fontSize=60;" vertex="1" parent="1">
                    <mxGeometry x="410" y="580" width="430" height="280" as="geometry"/>
                </mxCell>
                <mxCell id="10" value="text_2" style="rounded=0;whiteSpace=wrap;html=1;fontFamily=Georgia;fontSize=60;" vertex="1" parent="1">
                    <mxGeometry x="10" y="580" width="380" height="280" as="geometry"/>
                </mxCell>
                <mxCell id="11" value="vid_1" style="rounded=0;whiteSpace=wrap;html=1;fontFamily=Georgia;fontSize=60;" vertex="1" parent="1">
                    <mxGeometry x="10" y="870" width="830" height="230" as="geometry"/>
                </mxCell>
                <mxCell id="12" value="footer" style="rounded=0;whiteSpace=wrap;html=1;fontFamily=Georgia;fontSize=60;" vertex="1" parent="1">
                    <mxGeometry x="10" y="1110" width="830" height="90" as="geometry"/>
                </mxCell>
            </root>
        </mxGraphModel>
    </diagram>
</mxfile>